<?xml version="1.0" encoding="UTF-8" standalone="no"?>
<!DOCTYPE svg PUBLIC "-//W3C//DTD SVG 1.1//EN" "http://www.w3.org/Graphics/SVG/1.1/DTD/svg11.dtd">
<svg width="100%" height="100%" viewBox="0 0 4000 1600" version="1.1" xmlns="http://www.w3.org/2000/svg" xmlns:xlink="http://www.w3.org/1999/xlink" xml:space="preserve" xmlns:serif="http://www.serif.com/" style="fill-rule:evenodd;clip-rule:evenodd;stroke-linejoin:round;stroke-miterlimit:2;">
    <g id="Racing" transform="matrix(4,0,0,4,-1075.16913,-1136.404488)">
        <g>
            <path id="Line" d="M895.135,568.144L524.792,592.986L1142.437,580.057L892.551,579.66L895.135,568.144Z" style="fill:rgb(28,28,28);"/>
            <g id="R1" transform="matrix(0.25,0,0,0.25,268.792283,284.101122)">
                <path d="M2589.578,1156L2641.578,979L2791.734,979C2804.767,979 2817.178,984.575 2825.835,994.319C2834.492,1004.063 2838.567,1017.044 2837.032,1029.987C2836.905,1031.062 2836.833,1031.664 2836.833,1031.664C2836.833,1031.664 2835.891,1037.641 2834.583,1045.935C2830.096,1074.388 2805.476,1095.282 2776.671,1095.081C2767.072,1095.014 2759.945,1094.964 2759.945,1094.964L2801.045,1156L2724.911,1156L2689.211,1095.864L2693.311,1060.167L2758.311,1059.998C2758.311,1059.998 2759.304,1060.02 2760.628,1060.05C2764.572,1060.138 2768.125,1057.674 2769.424,1053.948C2770.972,1049.509 2772.778,1044.331 2772.778,1044.331C2772.778,1044.331 2773.212,1041.171 2773.739,1037.34C2774.202,1033.97 2773.185,1030.564 2770.95,1028C2768.714,1025.436 2765.479,1023.964 2762.077,1023.964C2760.153,1023.964 2686.178,1023.964 2686.178,1023.964L2653.178,1156L2589.578,1156Z" style="fill:rgb(28,28,28);"/>
            </g>
            <g id="R2" transform="matrix(0.25,0,0,0.25,268.792283,284.101122)">
                <path d="M2762.511,1060.048L2655.845,1060.048L2655.845,1094.714L2762.178,1094.714L2762.511,1060.048Z" style="fill:rgb(28,28,28);"/>
            </g>
            <g id="A1" transform="matrix(0.25,0,0,0.25,268.792283,284.101122)">
                <path d="M2810.566,1155.857L2949.566,979L3019.709,979L3064,1156L3001.791,1156L2974.977,1018.911L2872.399,1156L2810.566,1155.857Z" style="fill:rgb(28,28,28);"/>
            </g>
            <g id="A2" transform="matrix(0.25,0,0,0.25,268.792283,284.101122)">
                <path d="M2879.864,1123.804L3015.964,1123.804L3015.964,1091.004L2879.964,1091.004L2879.864,1123.804Z" style="fill:rgb(28,28,28);"/>
            </g>
            <path id="C" d="M1083.048,561.894L1079.937,573.035L1045.407,573.035C1042.624,573.035 1039.997,571.751 1038.287,569.555C1036.578,567.36 1035.977,564.498 1036.659,561.8C1036.766,561.379 1036.833,561.113 1036.845,561.064C1036.847,561.058 1036.848,561.052 1036.85,561.047C1036.98,560.575 1042.661,540.037 1042.661,540.037C1042.661,540.037 1042.848,539.24 1043.123,538.075C1044.377,532.759 1049.122,529.003 1054.584,529.003L1091.148,529.003L1087.959,540.139L1064.974,540.007C1064.974,540.007 1062.734,540.002 1060.457,539.997C1057.692,539.991 1055.297,541.917 1054.71,544.62C1054.233,546.817 1053.766,548.967 1053.766,548.967L1051.957,557.03C1051.957,557.03 1051.696,558.329 1051.442,559.593C1051.325,560.18 1051.473,560.788 1051.848,561.255C1052.223,561.721 1052.785,561.997 1053.383,562.009C1054.209,562.024 1054.929,562.038 1054.929,562.038L1083.048,561.894Z" style="fill:rgb(28,28,28);"/>
            <path id="I" d="M1087.882,573.035L1101.135,529.003L1114.979,529.003L1103.035,573.035L1087.882,573.035Z" style="fill:rgb(28,28,28);"/>
            <path id="N" d="M1112.857,573.035L1126.293,529.003L1147.899,529.003L1164.079,560.902L1174.063,529.003L1186.784,529.003L1173.369,573.035L1153.094,573.035L1136.22,541.036L1126.185,573.035L1112.857,573.035Z" style="fill:rgb(28,28,28);"/>
            <path id="G" d="M1249.395,529.003L1246.362,540.21L1212.086,540.05C1212.086,540.05 1211.159,540.048 1210.062,540.046C1207.967,540.041 1206.123,541.424 1205.542,543.437C1205.431,543.82 1205.357,544.077 1205.357,544.077L1201.395,557.243C1201.395,557.243 1201.074,558.402 1200.721,559.673C1200.505,560.454 1200.663,561.29 1201.148,561.938C1201.634,562.586 1202.392,562.972 1203.202,562.984C1204.167,562.998 1204.962,563.01 1204.962,563.01L1226.895,562.91L1229.095,556.11L1214.395,556.043L1216.895,548.118L1244.037,548.068L1237.395,573.035L1193.728,573.035C1191.345,573.035 1189.093,571.948 1187.611,570.083C1186.128,568.217 1185.578,565.777 1186.116,563.456C1186.503,561.788 1186.784,560.577 1186.784,560.577L1192.395,540.41C1192.395,540.41 1192.665,539.424 1193.047,538.032C1194.509,532.7 1199.356,529.003 1204.885,529.003C1206.878,529.003 1249.395,529.003 1249.395,529.003Z" style="fill:rgb(28,28,28);"/>
        </g>
    </g>
    <g id="Grip" transform="matrix(4,0,0,4,-1075.16913,-1136.404488)">
        <g>
            <path d="M430.813,457.915L529.718,458.058L509.051,568.725L341.718,572.058C341.718,572.058 341.718,572.058 341.718,572.058C325.204,571.913 309.594,564.492 299.057,551.775C288.519,539.059 284.127,522.342 287.053,506.088C289.008,495.224 290.479,487.052 290.692,485.872C290.709,485.774 290.726,485.676 290.742,485.577C291.132,483.215 296.082,453.185 296.415,451.165C296.426,451.094 296.439,451.023 296.452,450.952C296.594,450.202 297.474,445.545 298.733,438.877C305.701,401.996 338.013,375.353 375.546,375.541C385.901,375.592 393.289,375.629 393.289,375.629L545.909,375.677L535.385,424.725L412.118,424.591C412.118,424.591 407.42,424.503 401.071,424.383C381.779,424.019 365.176,437.94 362.17,456.999C361.715,459.883 361.423,461.734 361.423,461.734L355.766,494.534C355.766,494.534 355.051,498.678 354.143,503.941C353.209,509.361 354.695,514.92 358.212,519.15C361.728,523.38 366.921,525.857 372.421,525.928C376.109,525.976 378.766,526.01 378.766,526.01L458.861,524.867L464.766,489.629L423.766,490.201L430.813,457.915Z" style="fill:rgb(255,128,0);"/>
            <path d="M527.186,568.005L548.408,457.938L606.23,458.049L586.452,565.538L527.186,568.005Z" style="fill:rgb(255,128,0);"/>
            <path d="M759.098,556.072L686.932,559.322L620.579,457.938L694.654,457.938C700.216,457.938 705.082,454.199 706.515,448.825C706.904,447.364 707.182,446.322 707.182,446.322L709.021,438.141C709.021,438.141 709.449,435.632 709.938,432.765C710.288,430.707 709.714,428.6 708.368,427.004C707.021,425.409 705.04,424.489 702.953,424.489C698.294,424.489 693.432,424.489 693.432,424.489L553.869,425.081L564.182,375.629L732.072,375.216L736.153,375.216C746.687,375.216 756.69,379.843 763.511,387.871C770.332,395.9 773.282,406.518 771.581,416.915C771.575,416.949 771.572,416.966 771.572,416.966L763.905,454.383C763.905,454.383 762.957,458.399 761.688,463.774C757.902,479.805 743.62,491.151 727.147,491.212C719.154,491.242 712.572,491.266 712.572,491.266L759.098,556.072Z" style="fill:rgb(255,128,0);"/>
            <path d="M769.851,555.222L760.101,540.782L776.149,458.982L839.007,459.084L820.911,553.013L769.851,555.222Z" style="fill:rgb(255,128,0);"/>
            <path d="M793.08,375.216L855.515,375.216L846.009,425.028L782.978,425.005L793.08,375.216Z" style="fill:rgb(255,128,0);"/>
            <path d="M907.118,505.42L898.618,549.295L837.618,551.545L855.515,458.982L1008.157,458.982C1016.08,458.982 1022.851,453.277 1024.196,445.47C1024.519,443.596 1024.743,442.295 1024.743,442.295C1024.743,442.295 1025.054,440.035 1025.451,437.15C1025.871,434.096 1024.949,431.009 1022.923,428.685C1020.897,426.361 1017.965,425.028 1014.882,425.028L860.618,425.028L870.618,375.216L1043.741,375.216C1055.669,375.216 1067.028,380.317 1074.954,389.231C1082.879,398.146 1086.614,410.024 1085.218,421.87C1085.218,421.87 1085.218,421.87 1085.218,421.87L1082.676,441.954C1082.676,441.954 1082.309,444.623 1081.726,448.866C1077.28,481.185 1049.657,505.259 1017.034,505.246C1015.169,505.246 1014.093,505.245 1014.093,505.245L907.118,505.42Z" style="fill:rgb(255,128,0);"/>
        </g>
    </g>
</svg>
